<svg width="55" height="18" viewBox="0 0 55 18" fill="none" xmlns="http://www.w3.org/2000/svg">
<path d="M-1.19209e-06 17.568V0.671992H5.52C7.28 0.671992 8.84 1.02399 10.2 1.72799C11.576 2.41599 12.656 3.39199 13.44 4.65599C14.224 5.91999 14.616 7.39999 14.616 9.09599C14.616 10.744 14.24 12.208 13.488 13.488C12.736 14.752 11.672 15.752 10.296 16.488C8.936 17.208 7.328 17.568 5.472 17.568H-1.19209e-06ZM2.496 15.36H5.424C6.832 15.36 8.024 15.096 9 14.568C9.992 14.04 10.744 13.312 11.256 12.384C11.768 11.44 12.024 10.36 12.024 9.14399C12.024 8.37599 11.896 7.62399 11.64 6.88799C11.4 6.13599 11.04 5.46399 10.56 4.87199C10.08 4.27999 9.488 3.80799 8.784 3.45599C8.096 3.08799 7.296 2.90399 6.384 2.90399H2.496V15.36ZM16.929 17.568V5.75999H19.305V17.568H16.929ZM18.081 3.64799C17.649 3.64799 17.273 3.50399 16.953 3.21599C16.633 2.91199 16.473 2.53599 16.473 2.08799C16.473 1.62399 16.625 1.23999 16.929 0.935993C17.233 0.631993 17.617 0.479993 18.081 0.479993C18.561 0.479993 18.953 0.623993 19.257 0.911993C19.577 1.19999 19.737 1.59199 19.737 2.08799C19.737 2.53599 19.577 2.91199 19.257 3.21599C18.953 3.50399 18.561 3.64799 18.081 3.64799ZM26.1752 17.832C25.1832 17.832 24.4312 17.512 23.9192 16.872C23.4072 16.216 23.1512 15.424 23.1512 14.496V7.77599H20.7752L25.5272 1.75199V5.75999H28.5752V7.77599H25.5272V14.496C25.5272 14.848 25.6072 15.152 25.7672 15.408C25.9272 15.664 26.2072 15.792 26.6072 15.792C26.7672 15.792 26.9352 15.776 27.1112 15.744C27.2872 15.696 27.4712 15.624 27.6632 15.528V17.496C27.4392 17.624 27.2072 17.712 26.9672 17.76C26.7272 17.808 26.4632 17.832 26.1752 17.832ZM34.9001 17.808C33.8601 17.808 32.9001 17.56 32.0201 17.064C31.1561 16.552 30.4601 15.84 29.9321 14.928C29.4201 14 29.1641 12.912 29.1641 11.664C29.1641 10.4 29.4201 9.31199 29.9321 8.39999C30.4601 7.47199 31.1561 6.75199 32.0201 6.23999C32.8841 5.72799 33.8281 5.47199 34.8521 5.47199C35.8281 5.47199 36.6761 5.67999 37.3961 6.09599C38.1161 6.49599 38.7161 7.03199 39.1961 7.70399V-8.10623e-06H41.5961V17.592L39.0041 15.744C38.4921 16.352 37.9161 16.848 37.2761 17.232C36.6361 17.616 35.8441 17.808 34.9001 17.808ZM35.3321 15.768C36.0521 15.768 36.7081 15.592 37.3001 15.24C37.8921 14.888 38.3641 14.4 38.7161 13.776C39.0841 13.152 39.2681 12.44 39.2681 11.64C39.2681 10.84 39.0841 10.136 38.7161 9.52799C38.3481 8.90399 37.8681 8.41599 37.2761 8.06399C36.6841 7.69599 36.0361 7.51199 35.3321 7.51199C34.6601 7.51199 34.0361 7.68799 33.4601 8.03999C32.8841 8.37599 32.4201 8.85599 32.0681 9.47999C31.7321 10.088 31.5641 10.808 31.5641 11.64C31.5641 12.36 31.7161 13.04 32.0201 13.68C32.3241 14.304 32.7561 14.808 33.3161 15.192C33.8761 15.576 34.5481 15.768 35.3321 15.768ZM48.2001 17.832C47.4321 17.832 46.6801 17.664 45.9441 17.328C45.2241 16.992 44.6241 16.504 44.1441 15.864C43.6801 15.224 43.4481 14.44 43.4481 13.512C43.4481 12.76 43.5921 12.136 43.8801 11.64C44.1681 11.144 44.5521 10.744 45.0321 10.44C45.5281 10.136 46.0721 9.91999 46.6641 9.79199C47.2721 9.66399 47.8881 9.59999 48.5121 9.59999C49.1841 9.59999 49.8241 9.66399 50.4321 9.79199C51.0401 9.90399 51.5921 10.096 52.0881 10.368V9.93599C52.0881 9.05599 51.7761 8.43199 51.1521 8.06399C50.5281 7.69599 49.7041 7.51199 48.6801 7.51199C47.9281 7.51199 47.1841 7.59999 46.4481 7.77599C45.7281 7.93599 45.0081 8.22399 44.2881 8.63999V6.52799C44.8641 6.28799 45.5441 6.06399 46.3281 5.85599C47.1281 5.63199 48.0001 5.51999 48.9441 5.51999C49.9681 5.51999 50.8961 5.69599 51.7281 6.04799C52.5601 6.38399 53.2241 6.89599 53.7201 7.58399C54.2161 8.27199 54.4641 9.12799 54.4641 10.152V17.616L52.0401 16.368C51.5121 16.848 50.9441 17.216 50.3361 17.472C49.7281 17.712 49.0161 17.832 48.2001 17.832ZM48.8481 16.008C49.5681 16.008 50.1921 15.88 50.7201 15.624C51.2481 15.368 51.7041 15.016 52.0881 14.568V12.12C51.7201 11.912 51.2881 11.728 50.7921 11.568C50.2961 11.392 49.6961 11.304 48.9921 11.304C48.4961 11.304 48.0001 11.384 47.5041 11.544C47.0241 11.704 46.6241 11.96 46.3041 12.312C45.9841 12.648 45.8241 13.096 45.8241 13.656C45.8241 14.184 45.9601 14.624 46.2321 14.976C46.5201 15.328 46.8961 15.592 47.3601 15.768C47.8241 15.928 48.3201 16.008 48.8481 16.008Z" fill="#662AE6"/>
</svg>
