<svg width="595" height="186" viewBox="0 0 595 186" fill="none" xmlns="http://www.w3.org/2000/svg">
<path d="M451.621 125.549C451.19 136.711 447.917 147.217 442.385 156.725C437.299 165.476 430.319 172.632 421.485 177.56C410.514 183.684 398.505 186.046 386.028 185.296C369.836 184.322 354.856 177.12 343.981 165.039C340.908 161.63 338.202 157.943 335.626 154.059L335.589 154.003L335.627 153.947L351.521 130.75L351.513 130.733L351.548 130.685L353.947 127.345L354.098 127.135L354.127 127.392C356.067 144.418 369.596 156.985 386.338 158.393C394.907 159.116 403.237 156.692 410.21 151.675C414.619 148.497 417.973 144.183 420.343 139.316L421.122 137.503C426.48 124.997 424.691 110.711 416.177 99.9941C411.265 93.8119 404.293 89.5968 396.698 87.7129L395.961 87.5381C393.006 86.8708 390.297 86.7111 387.299 86.8701C376.527 87.4506 364.885 93.6944 358.749 102.477L349.854 115.199L349.853 115.198L329.111 145.729L319.92 159.13C316.525 164.082 312.39 168.258 307.842 172.144C303.753 175.633 299.401 178.396 294.53 180.647C274.892 189.732 253.6 184.033 239.695 167.796C231.222 157.901 226.28 144.854 225.737 131.743L225.736 131.739V80.8125L202.535 80.8281H202.436V80.7285L202.38 54.5654V54.4658H202.479L225.752 54.4258L225.736 14.8428V14.7432H253.693V54.418H294.576L309.842 54.458H309.941V80.8203H253.693L253.709 131.531C253.709 134.094 254.098 136.357 254.56 138.81L254.762 139.578C255.829 143.393 257.7 146.781 260.38 149.752C265.236 155.132 272.527 157.726 279.674 156.354C286.708 155.005 291.997 150.055 296.04 144.229L305.838 130.104L331.259 92.877C334.449 88.2107 337.833 83.8207 341.761 79.8135C352.028 69.3232 365.345 62.6406 379.9 60.8682C395.538 58.9587 410.555 62.3014 423.004 72.0049L423.596 72.4717L423.612 72.4854L423.622 72.5049C423.665 72.5905 423.73 72.6017 423.759 72.5928C423.772 72.5883 423.787 72.5771 423.797 72.5527C423.807 72.5265 423.813 72.4794 423.795 72.4062L423.792 72.3945V14.7354H451.621V125.549ZM183.817 185.324H155.454V54.8848H183.817V185.324ZM126.877 184.91H98.458L98.4971 170.761C92.5023 176.285 80.5531 184.129 61.127 184.129C26.2829 184.129 0 156.372 0 119.559C2.93332e-05 82.7456 26.275 54.9883 61.127 54.9883C80.5611 54.9884 92.5023 62.8401 98.4971 68.3564L98.4492 0.279297H126.877V184.91ZM595 184.508H567.929V169.749L567.756 169.922C562.329 175.373 550.108 184.508 529.127 184.508C494.271 184.508 467.988 156.716 467.988 119.869C467.988 83.0226 494.271 55.2314 529.127 55.2314C550.107 55.2316 562.328 64.3655 567.755 69.8164H567.756L567.929 69.9893V55.2314H595V184.508ZM530.977 79.8398C520.278 79.8398 511.197 83.9547 504.79 91.0117C498.383 98.0695 494.646 108.077 494.646 119.869C494.646 131.663 498.32 141.67 504.695 148.728C511.07 155.784 520.15 159.899 530.977 159.899C552.622 159.899 568.335 143.074 568.335 119.869C568.335 96.6653 552.367 79.8403 530.977 79.8398ZM62.4893 80.9678C41.9227 80.968 27.5498 96.8396 27.5498 119.559C27.5498 142.278 41.6516 158.149 62.4893 158.149C83.3271 158.149 98.4492 141.919 98.4492 119.559C98.4492 97.1982 83.0561 80.9678 62.4893 80.9678ZM169.524 0C179.744 0.000133123 187.444 7.60511 187.444 17.7051C187.444 27.805 179.744 35.4178 169.524 35.418C159.432 35.418 151.819 27.7971 151.819 17.7051C151.819 7.61299 159.305 0 169.524 0Z" fill="#662AE6"/>
</svg>
