<svg viewBox="0 0 596 594" fill="none" xmlns="http://www.w3.org/2000/svg">
<g opacity="0.4">
<g clip-path="url(#clip0_4144_550)">
<path opacity="0.3" d="M507.144 163.858L184.412 79.7637C176.663 77.7444 168.657 82.3665 166.531 90.0875L77.9931 411.628C75.8671 419.349 80.4259 427.245 88.1755 429.265L410.907 513.359C418.657 515.379 426.662 510.756 428.788 503.036L517.326 181.495C519.452 173.774 514.893 165.878 507.144 163.858Z" stroke="#7C3AED" stroke-width="3.3"/>
<path opacity="0.45" d="M457.008 195.744L211.451 131.759C205.639 130.244 199.635 133.711 198.04 139.502L130.675 384.152C129.08 389.943 132.499 395.865 138.311 397.38L383.868 461.365C389.68 462.879 395.685 459.412 397.279 453.622L464.645 208.971C466.239 203.18 462.82 197.258 457.008 195.744Z" stroke="#8B5CF6" stroke-width="2.7"/>
<path opacity="0.65" d="M406.872 227.629L238.49 183.753C234.615 182.744 230.613 185.055 229.55 188.915L183.356 356.676C182.293 360.536 184.572 364.484 188.447 365.494L356.829 409.369C360.704 410.379 364.706 408.068 365.769 404.208L411.963 236.447C413.026 232.587 410.747 228.638 406.872 227.629Z" stroke="#A78BFA" stroke-width="2.4"/>
<path opacity="0.55" d="M199.559 126.648C203.923 124.128 205.447 118.596 202.961 114.291C200.476 109.987 194.923 108.54 190.559 111.06C186.195 113.579 184.671 119.112 187.156 123.416C189.642 127.721 195.195 129.168 199.559 126.648Z" fill="#7C3AED"/>
<path opacity="0.55" d="M482.337 200.33C486.701 197.811 488.225 192.278 485.739 187.974C483.254 183.669 477.701 182.222 473.337 184.742C468.972 187.262 467.449 192.794 469.934 197.099C472.42 201.403 477.972 202.85 482.337 200.33Z" fill="#7C3AED"/>
<path opacity="0.55" d="M404.759 482.064C409.123 479.545 410.646 474.012 408.161 469.708C405.676 465.403 400.123 463.956 395.759 466.476C391.394 468.996 389.871 474.528 392.356 478.833C394.841 483.137 400.394 484.584 404.759 482.064Z" fill="#7C3AED"/>
<path opacity="0.55" d="M121.983 408.381C126.347 405.861 127.871 400.329 125.386 396.024C122.9 391.719 117.347 390.272 112.983 392.792C108.619 395.312 107.095 400.844 109.581 405.149C112.066 409.454 117.619 410.9 121.983 408.381Z" fill="#7C3AED"/>
<path opacity="0.6" d="M306.66 312.15C315.389 307.11 318.436 296.045 313.465 287.436C308.495 278.827 297.389 275.933 288.66 280.973C279.932 286.012 276.885 297.077 281.855 305.686C286.826 314.295 297.932 317.189 306.66 312.15Z" stroke="#8B5CF6" stroke-width="2.7"/>
<path opacity="0.75" d="M301.259 302.798C304.751 300.782 305.969 296.356 303.981 292.912C301.993 289.468 297.551 288.311 294.059 290.327C290.568 292.343 289.349 296.768 291.337 300.212C293.325 303.656 297.768 304.813 301.259 302.798Z" fill="#8B5CF6"/>
</g>
</g>
<defs>
<clipPath id="clip0_4144_550">
<rect width="438" height="432" fill="white" transform="translate(0 219) rotate(-30)"/>
</clipPath>
</defs>
</svg>
