<svg  viewBox="0 0 564 558" fill="none" xmlns="http://www.w3.org/2000/svg">
<g opacity="0.5">
<path opacity="0.9" d="M185.87 104.618C227.434 160.106 175.31 251.343 286.478 278.875C318.218 168.835 213.143 168.357 185.87 104.618Z" stroke="#E0D2FF" stroke-width="2.95543"/>
<path opacity="0.9" d="M467.495 174.364C401.596 203.239 397.645 306.406 286.478 278.875C318.218 168.835 409.539 216.996 467.495 174.364Z" stroke="#E0D2FF" stroke-width="2.95543"/>
<path opacity="0.9" d="M387.085 453.132C345.521 397.643 397.645 306.406 286.477 278.875C254.737 388.914 359.812 389.392 387.085 453.132Z" stroke="#E0D2FF" stroke-width="2.95543"/>
<path opacity="0.9" d="M105.461 383.384C171.359 354.509 175.31 251.343 286.478 278.874C254.737 388.914 163.417 340.752 105.461 383.384Z" stroke="#E0D2FF" stroke-width="2.95543"/>
<path opacity="0.5" d="M343.336 81.7567C331.745 151.139 387.529 220.533 286.478 278.875C230.315 181.597 316.024 147.245 343.336 81.7567Z" stroke="#A78BFA" stroke-width="1.724"/>
<path opacity="0.5" d="M485.616 328.193C419.735 303.54 342.641 376.152 286.478 278.874C387.529 220.532 415.246 319.102 485.616 328.193Z" stroke="#A78BFA" stroke-width="1.724"/>
<path opacity="0.5" d="M229.619 475.993C241.21 406.611 342.64 376.152 286.477 278.875C185.426 337.217 256.931 410.505 229.619 475.993Z" stroke="#A78BFA" stroke-width="1.724"/>
<path opacity="0.5" d="M87.3392 229.556C153.221 254.209 230.314 181.597 286.478 278.874C185.426 337.216 157.71 238.647 87.3392 229.556Z" stroke="#A78BFA" stroke-width="1.724"/>
<path opacity="0.85" d="M291.772 288.046C297.034 285.009 298.928 278.44 296.004 273.374C293.08 268.309 286.443 266.666 281.182 269.704C275.92 272.741 274.025 279.31 276.95 284.376C279.874 289.441 286.51 291.084 291.772 288.046Z" fill="#C1A5FF"/>
<path d="M289.125 283.461C291.756 281.942 292.703 278.657 291.241 276.125C289.779 273.592 286.461 272.77 283.83 274.289C281.199 275.808 280.252 279.093 281.714 281.625C283.176 284.158 286.494 284.98 289.125 283.461Z" fill="#EDE9FE"/>
</g>
</svg>
