<svg viewBox="0 0 387 383" fill="none" xmlns="http://www.w3.org/2000/svg">
<g opacity="0.7">
<path opacity="0.25" d="M193.499 366.586C291.207 366.586 370.414 288.197 370.414 191.5C370.414 94.803 291.207 16.4144 193.499 16.4144C95.7924 16.4144 16.5852 94.803 16.5852 191.5C16.5852 288.197 95.7924 366.586 193.499 366.586Z" stroke="#7C3AED" stroke-width="2"/>
<path opacity="0.35" d="M193.5 339.229C275.941 339.229 342.772 273.089 342.772 191.5C342.772 109.912 275.941 43.7717 193.5 43.7717C111.06 43.7717 44.2288 109.912 44.2288 191.5C44.2288 273.089 111.06 339.229 193.5 339.229Z" stroke="#8B5CF6" stroke-width="1.6"/>
<path opacity="0.45" d="M193.501 311.872C260.674 311.872 315.129 257.98 315.129 191.5C315.129 125.021 260.674 71.129 193.501 71.129C126.327 71.129 71.8721 125.021 71.8721 191.5C71.8721 257.98 126.327 311.872 193.501 311.872Z" stroke="#A78BFA" stroke-width="1.4" stroke-dasharray="6 10"/>
<path opacity="0.6" d="M193.5 205.179C201.133 205.179 207.321 199.055 207.321 191.5C207.321 183.946 201.133 177.822 193.5 177.822C185.866 177.822 179.678 183.946 179.678 191.5C179.678 199.055 185.866 205.179 193.5 205.179Z" stroke="#8B5CF6" stroke-width="2"/>
<path opacity="0.7" d="M193.436 196.843C196.489 196.843 198.965 194.394 198.965 191.372C198.965 188.35 196.489 185.901 193.436 185.901C190.383 185.901 187.907 188.35 187.907 191.372C187.907 194.394 190.383 196.843 193.436 196.843Z" fill="#8B5CF6"/>
</g>
</svg>
