<svg width="192" height="192" viewBox="0 0 192 192" fill="none" xmlns="http://www.w3.org/2000/svg">
<rect x="15.9102" y="20.6814" width="163.862" height="157.499" fill="white"/>
<path d="M173.084 0H18.9158C8.46887 0 0 8.46887 0 18.9158V173.084C0 183.531 8.46887 192 18.9158 192H173.084C183.531 192 192 183.531 192 173.084V18.9158C192 8.46887 183.531 0 173.084 0ZM161.396 117.456C159.026 139.819 142.762 157.594 120.685 156.353C109.061 155.701 98.6833 149.115 92.4417 138.838C97.4053 136.122 101.218 132.437 104.729 127.595C108.976 135.481 116.491 140.275 125.151 139.638C136.711 138.148 145.731 127.553 144.156 115.096C142.709 103.647 132.05 95.4432 121.258 96.6788C112.195 97.7182 105.943 104.331 102.777 112.848C96.0636 130.931 78.9032 138.116 61.8806 131.615C50.9193 127.431 43.5163 117.106 43.4474 104.925L43.2989 79.6138L30.6301 79.5607L30.5876 62.6707L43.3466 62.5647L43.3784 44.6406L59.6374 44.63L59.6533 62.5753L80.7645 62.676L80.7751 79.5289L59.648 79.635V103.387C59.648 110.254 64.198 115.743 70.5669 116.92C78.1342 118.776 84.7099 114.502 87.4993 107.036C90.9516 97.7977 96.7636 90.0447 104.93 85.0387C117.514 77.3229 132.978 77.9645 144.628 87.5948L144.692 44.6512L161.418 44.6034L161.396 117.456Z" fill="#662AE6"/>
</svg>
