<svg width="345" height="345" viewBox="0 0 345 345" fill="none" xmlns="http://www.w3.org/2000/svg">
<path d="M310.583 0H33.9425C15.1966 0 0 15.1966 0 33.9425V310.583C0 329.329 15.1966 344.525 33.9425 344.525H310.583C329.329 344.525 344.525 329.329 344.525 310.583V33.9425C344.525 15.1966 329.329 0 310.583 0ZM289.61 210.763C285.357 250.891 256.172 282.788 216.558 280.561C195.7 279.39 177.078 267.572 165.878 249.131C174.784 244.258 181.626 237.645 187.926 228.957C195.548 243.107 209.031 251.709 224.57 250.567C245.315 247.893 261.501 228.881 258.675 206.529C256.077 185.984 236.95 171.264 217.586 173.481C201.324 175.346 190.105 187.212 184.424 202.494C172.377 234.943 141.584 247.836 111.039 236.17C91.3697 228.662 78.0858 210.135 77.9621 188.278L77.6957 142.859L54.9627 142.764L54.8866 112.457L77.7813 112.266L77.8384 80.1032L107.014 80.0841L107.042 112.285L144.924 112.466L144.943 142.707L107.033 142.897V185.518C107.033 197.841 115.197 207.69 126.625 209.802C140.204 213.133 152.004 205.463 157.009 192.065C163.204 175.489 173.633 161.577 188.287 152.594C210.868 138.748 238.616 139.9 259.522 157.18L259.636 80.1222L289.648 80.0365L289.61 210.763Z" fill="#662AE6"/>
</svg>
